# xmcd
#
# Track frame offsets:
# 180
# 13689
# 25314
# 37080
# 50256
# 66878
# 83101
# 99463
# 113347
# 125728
# 140267
# 152203
#
# Disc length: 2376 seconds
#
# Revision: 0
# Processed by: cddbd v1.5.2PL0 Copyright (c) Steve Scherf et al.
# Submitted via: Axialis_AX_CDPlayer 2.6
#
DISCID=9909460c
DTITLE=Little Isidore and the Inquisitors - No One Gets Hurt
DYEAR=1900
DGENRE=
TTITLE0=Woo Woo Train
TTITLE1=Why Do You Cry
TTITLE2=Whispering Bells
TTITLE3=In Paradise
TTITLE4=I Pray For You
TTITLE5=Love You So
TTITLE6=She's My Soul
TTITLE7=Ain't No Child
TTITLE8=Desirie
TTITLE9=Bongo Stomp
TTITLE10=Been So Long
TTITLE11=Go
EXTD=
EXTT0=
EXTT1=
EXTT2=
EXTT3=
EXTT4=
EXTT5=
EXTT6=
EXTT7=
EXTT8=
EXTT9=
EXTT10=
EXTT11=
PLAYORDER=
